<svg xmlns="http://www.w3.org/2000/svg" xmlns:xlink="http://www.w3.org/1999/xlink" version="1.1" x="0px" y="0px" viewBox="0 0 64 64" style="enable-background:new 0 0 64 64;" xml:space="preserve" class="content__mission-image"><style type="text/css">
.svg__icon {
  fill: #ccc;
  }
</style><path class="svg__icon" d="M56.792,8.728C56.93,8.366,57,7.987,57,7.602c0-1.368-0.808-2.611-2.058-3.166l-7.121-3.166C47.416,1.091,46.987,1,46.545,1  c-1.356,0-2.555,0.864-2.981,2.149L41.28,10h-0.477l-2.001-9H25.198l-2.001,9H22.72l-2.283-6.85C20.01,1.864,18.812,1,17.455,1  c-0.442,0-0.871,0.091-1.277,0.271l-7.12,3.165C7.808,4.991,7,6.234,7,7.602C7,7.987,7.07,8.366,7.209,8.73L12,21.186v12.839  c-1.207,0.914-2,2.348-2,3.974v10c0,1.641,0.806,3.088,2.031,4H12v6c0,2.757,2.243,5,5,5h30c2.757,0,5-2.243,5-5v-6h-0.031  C53.194,51.088,54,49.641,54,48V38c0-1.627-0.793-3.062-2.001-3.975L52,22.003c0-0.001,0-0.002,0-0.003h0l0-0.813L56.792,8.728z   M55,7.602c0,0.141-0.025,0.279-0.076,0.411l-3.023,7.86c-0.18-1.103-0.616-2.117-1.248-2.984l2.684-6.977l0.793,0.353  C54.658,6.498,55,7.023,55,7.602z M43,23V12h2c2.757,0,5,2.243,5,5l0,5.003C49.998,23.656,48.653,25,47,25h-2v-2H43z M33.642,5  h-3.284l0.444-2h2.395L33.642,5z M29.914,7h4.173l0.667,3h-5.506L29.914,7z M37,12v11h-2v2h-6v-2h-2V12H37z M41,12v11h-2V12H41z   M27,33v-4h2v-2h6v2h2v4H27z M25,12v11h-2V12H25z M27,25v2h-6v-2H27z M25,29v4h-1c-0.347,0-0.678,0.058-1,0.142V29H25z M22,37  c0-1.103,0.897-2,2-2h16c1.103,0,2,0.897,2,2v2H22V37z M22,41h4v5h2v-5h14v8c0,1.103-0.897,2-2,2H24c-1.103,0-2-0.897-2-2V41z   M41,33.142C40.678,33.058,40.347,33,40,33h-1v-4h2V33.142z M37,27v-2h6v2H37z M45.461,3.781c0.206-0.62,0.954-0.948,1.549-0.683  l4.497,1.999l-2.402,6.244C47.95,10.502,46.534,10,45,10h-1.613L45.461,3.781z M38.753,10h-1.951l-1.556-7h1.951L38.753,10z   M26.802,3h1.951l-1.556,7h-1.951L26.802,3z M16.989,3.099c0.597-0.267,1.343,0.062,1.551,0.684L20.613,10H19  c-1.534,0-2.949,0.502-4.104,1.342l-2.402-6.245L16.989,3.099z M9,7.602c0-0.579,0.342-1.104,0.87-1.339l0.793-0.352l2.684,6.978  c-0.632,0.867-1.068,1.882-1.248,2.984L9.077,8.015C9.025,7.881,9,7.743,9,7.602z M14,17c0-2.757,2.243-5,5-5h2v11h-2v2h-2  c-1.654,0-3-1.346-3-3V17z M15,35h1v3h-4C12,36.346,13.346,35,15,35z M16,43h-4v-3h4V43z M12,45h4v6h-1c-1.654,0-3-1.346-3-3V45z   M47,61H17c-1.654,0-3-1.346-3-3v-1h36v1C50,59.654,48.654,61,47,61z M49,51h-1v-6h4v3C52,49.654,50.654,51,49,51z M48,40h4v3h-4V40  z M48,38v-3h1c1.654,0,3,1.346,3,3H48z M49,33h-3v20h3c0.342,0,0.677-0.035,1-0.101V55H14v-2.101C14.323,52.965,14.658,53,15,53h3  V33h-3c-0.342,0-0.677,0.035-1,0.101v-7.127C14.838,26.609,15.87,27,17,27h2v2h2v5.382c-0.615,0.703-1,1.612-1,2.618v12  c0,2.206,1.794,4,4,4h16c2.206,0,4-1.794,4-4V37c0-1.005-0.385-1.914-1-2.618V29h2v-2h2c1.13,0,2.161-0.391,3-1.025l0,7.126  C49.676,33.035,49.342,33,49,33z"/></svg>