<svg xmlns:dc="http://purl.org/dc/elements/1.1/" xmlns:cc="http://creativecommons.org/ns#" xmlns:rdf="http://www.w3.org/1999/02/22-rdf-syntax-ns#" xmlns:svg="http://www.w3.org/2000/svg" xmlns="http://www.w3.org/2000/svg" xmlns:sodipodi="http://sodipodi.sourceforge.net/DTD/sodipodi-0.dtd" xmlns:inkscape="http://www.inkscape.org/namespaces/inkscape" version="1.1" x="0px" y="0px" viewBox="0 0 100 100" class="content__mission-image"><style type="text/css">
.svg__icon {
  fill: #ccc;
  }
</style><g transform="translate(0,-952.36218)" ><path class="svg__icon" style="text-indent:0;text-transform:none;direction:ltr;block-progression:tb;baseline-shift:baseline;color:#000000;enable-background:accumulate;" d="m 13.744848,973.38453 c -0.745626,0.0121 -1.465527,0.47948 -1.780075,1.1558 l -5.6837469,12.58891 c -0.641562,1.4216 -0.2477574,2.49239 0.1561469,3.59236 0.4039043,1.09997 1.0449655,2.23424 1.8425335,3.31123 1.595136,2.15393 3.8511575,4.34206 6.9329225,4.34206 l 0.468441,0 c -1.852897,6.65471 -3.909769,13.17811 -5.652518,19.83621 -0.3064794,1.1751 -0.5700089,2.2114 -0.7495053,3.0612 -0.1794964,0.85 -0.320132,1.3655 -0.2810644,2.1867 0.068083,1.4309 -0.1794355,2.9971 0.4996701,4.7794 0.3395527,0.8912 1.0545886,1.8053 2.0299096,2.3428 0.975321,0.5375 2.103631,0.7519 3.435232,0.781 2.887747,0.063 6.63473,0.03 10.024631,-0.6248 1.694951,-0.3273 3.313543,-0.7986 4.715637,-1.6243 1.402094,-0.8257 2.640553,-2.1201 3.091709,-3.8423 0.01052,-0.01 0.02093,-0.021 0.03123,-0.031 l 2.716956,-11.8704 c 4.178118,-0.033 8.392869,0.06 12.554212,-0.031 4.866058,-0.2733 8.096774,-2.9633 9.837255,-6.2476 1.461422,-2.7577 2.124233,-5.8618 2.685726,-8.71541 l 24.202771,0 c 2.707344,0 5.082669,-1.52255 6.651858,-3.68607 1.569189,-2.16402 2.467121,-5.0197 2.467121,-8.12237 l 0,-11.1832 c 0,0 -1.988444,-1.99918 -1.99868,-1.99922 -20.507824,6e-5 -41.679636,0 -62.521221,0 -5.290189,7e-4 -11.703615,-7.2e-4 -15.677151,0 z m 1.342864,3.99846 c 4.711543,3.4e-4 9.369778,-1.5e-4 14.334286,0 20.174256,9e-4 41.302789,-7.9e-4 60.52254,0 l 0,9.18396 c 0,0.62623 -0.06372,1.2336 -0.156147,1.8118 l -79.666151,0 z m 10.711677,1.99923 c -1.047515,0.0476 -1.95691,1.04534 -1.907811,2.09307 0.0491,1.04773 1.047812,1.95597 2.095188,1.90538 l 4.996701,0 c 1.055955,0.015 2.027228,-0.94288 2.027228,-1.99923 0,-1.05634 -0.971273,-2.0142 -2.027228,-1.99922 -1.718796,-2e-5 -3.480615,0 -5.184078,0 z m 13.990763,0 c -1.047521,0.0476 -1.956927,1.04533 -1.907828,2.09307 0.0491,1.04774 1.047823,1.95598 2.095204,1.90538 l 4.996701,0 c 1.055957,0.015 2.027235,-0.94287 2.027235,-1.99923 0,-1.05635 -0.971278,-2.01421 -2.027235,-1.99922 -1.718796,-2e-5 -3.480614,0 -5.184077,0 z m 21.985484,0 c -1.047515,0.0476 -1.95691,1.04534 -1.907811,2.09307 0.0491,1.04773 1.047812,1.95597 2.095188,1.90538 l 16.988783,0 c 1.055962,0.015 2.02725,-0.94287 2.02725,-1.99923 0,-1.05635 -0.971288,-2.01421 -2.02725,-1.99922 -5.719489,0 -11.470667,0 -17.17616,0 z m -49.685945,12.99499 76.106002,0 c -0.988841,1.32973 -2.165508,1.99923 -3.372773,1.99923 -23.244858,-0.0409 -46.375769,0 -69.610293,0 -0.72024,0 -2.022919,-0.79296 -3.122936,-1.99923 z m 7.713657,5.99768 15.14625,0 c -0.143687,3.31211 -0.794105,7.57931 -2.279745,10.99571 -2.281787,0 -4.603503,0 -6.870464,0 -1.048393,0.046 -1.95941,1.0447 -1.910272,2.0933 0.04914,1.0485 1.049516,1.9571 2.097649,1.9052 l 5.496371,0 -0.468441,1.9992 c -2.062897,0 -4.166691,0 -6.214647,0 -1.048396,0.046 -1.959419,1.0446 -1.910281,2.0932 0.04914,1.0486 1.049521,1.9572 2.097657,1.9053 l 5.09039,0 -0.468441,1.9993 c -1.927388,0 -3.896292,0 -5.808665,0 -1.048396,0.046 -1.959419,1.0446 -1.910281,2.0932 0.04914,1.0485 1.049521,1.9571 2.097657,1.9052 l 4.153508,0 c -0.137167,0.106 -0.283281,0.2033 -0.468441,0.3123 -0.797773,0.4699 -2.016461,0.8817 -3.435232,1.1558 -2.837541,0.5482 -6.42672,0.592 -9.212667,0.5312 -0.93261,-0.02 -1.417757,-0.1848 -1.592699,-0.2812 -0.174941,-0.097 -0.143897,-0.085 -0.218605,-0.2812 -0.149419,-0.3921 -0.134483,-1.7618 -0.218606,-3.5299 0.01084,0.228 0.03007,-0.4422 0.187376,-1.187 0.157309,-0.7449 0.420875,-1.7335 0.718276,-2.8738 1.737354,-7.1755 4.176888,-13.6507 5.902353,-20.83581 z m 19.143611,0 2.02991,0 c 0.07209,1.09667 0.337415,2.23801 0.780734,3.40501 0.591092,1.5561 1.528244,3.1331 3.060479,4.2171 0.858476,0.6052 2.190043,0.3745 2.795055,-0.4842 0.605012,-0.8587 0.374396,-2.1906 -0.48408,-2.7958 -0.613831,-0.4343 -1.228693,-1.3023 -1.623928,-2.3429 -0.257858,-0.67879 -0.427798,-1.37809 -0.49967,-1.99921 l 11.523641,0 c -0.525436,2.53891 -1.13377,4.97331 -2.123597,6.84111 -1.298187,2.4496 -2.920075,3.9503 -6.558171,4.1546 l -10.836595,0 c 1.357715,-3.7753 1.835184,-7.7797 1.936222,-10.99571 z" fill="#000000" fill-opacity="1" fill-rule="nonzero" stroke="none" marker="none" visibility="visible" display="inline" overflow="visible"/></g></svg>