<svg xmlns="http://www.w3.org/2000/svg" xmlns:xlink="http://www.w3.org/1999/xlink" version="1.1" x="0px" y="0px" viewBox="0 0 100 100" style="enable-background:new 0 0 100 100;" xml:space="preserve" class="content__mission-image"><style type="text/css">
.svg__icon {
  fill: #ccc;
  }
</style><path class="svg__icon" d="M66.4,95.3l-9.2-3.7l0.8-7.7l-7.9,1.2L46.3,76l6.2-5l-6.3-4.6l3-7.6l-5.5-3.3c0,0-0.1,0-0.1,0l-2.7,9.7H29.4  L27,55.7c-0.1,0-0.2-0.1-0.3-0.1l-8.5,5l-8.1-8.1l4.8-8.6c0,0,0-0.1-0.1-0.1l-9.5-2.4V29.7l9.4-2.6c0-0.1,0.1-0.2,0.1-0.3l-5.1-8.7  l8.1-8.1l8.8,4.9c0.1,0,0.2-0.1,0.2-0.1l2.5-9.6h11.5l2.7,9.7c0,0,0,0,0,0l8.8-4.9l8.1,8.1l-5.1,8.7c0,0.1,0.1,0.1,0.1,0.2l9.8,2.8  v11.5l-9.9,2.5c0,0,0,0,0,0l3.2,5.6l7.1-3l4.8,6.2l4.8-6.3l9.2,3.7l-1,7.8l7.6-1L95,66L89,70.7l6.2,4.7l-3.7,9.2l-7.7-1c0,0,0,0,0,0  l1.2,7.7l-9.1,3.9l-4.8-6L66.4,95.3z M62.3,88.5l2.5,1l3.9-5.3l1.3,0.1c0.2,0,0.4,0,0.6,0.1c0.1,0,0.1,0,0.2,0c0.1,0,0.3,0,0.4,0  c0.2,0,0.4-0.1,0.6-0.1l1.2-0.1l4.2,5.2l2.5-1l-1-6.5l1-0.9c0.5-0.4,0.9-0.9,1.4-1.4l0.8-1l6.6,0.9l1-2.5l-5.4-4.1l0.1-1.2  c0-0.2,0-0.4,0.1-0.6l0-0.1c0-0.1,0-0.3-0.1-0.5c0-0.2-0.1-0.4-0.1-0.6L84,68.6l5.3-4.1L88.2,62l-6.7,0.9L80.7,62  c-0.3-0.4-0.7-0.7-1.2-1.1l-1-0.8l0.9-6.9l-2.5-1l-4.3,5.6l-1.2-0.1c-0.2,0-0.4,0-0.6-0.1l-0.1,0c-0.1,0-0.2,0-0.4,0  c-0.2,0-0.4,0.1-0.6,0.1l-1.3,0.1l-4.3-5.5l-2.5,1.1l0.9,7l-0.9,0.8c-0.3,0.3-0.7,0.6-1,1.1l-0.8,0.9L53,62.3l-1,2.5l5.5,4.1  l-0.1,1.3c0,0.2,0,0.4-0.1,0.6c0,0.1,0,0.2,0,0.2c0,0.1,0,0.2,0,0.3c0,0.2,0.1,0.4,0.1,0.6l0.1,1.2l-5.5,4.4l1.1,2.5l6.8-1l0.9,1  c0.4,0.4,0.8,0.8,1.3,1.3l0.9,0.8L62.3,88.5z M33.1,60.6h4.3l2.4-8.5l1.2-0.4c0.7-0.2,1.3-0.5,1.9-0.8l1.1-0.6l7.5,4.4l3-3L50.2,44  l0.5-1.1c0.3-0.6,0.5-1.2,0.8-1.9l0.4-1.2l8.7-2.2v-4.3L52,30.9l-0.4-1.2c-0.3-0.8-0.5-1.4-0.8-2l-0.6-1.1l4.5-7.6l-3-3l-7.8,4.4  l-1.1-0.5c-0.5-0.3-1.2-0.5-1.8-0.8l-1.2-0.4L37.4,10h-4.3l-2.2,8.5l-1.2,0.4c-0.8,0.3-1.5,0.5-2.1,0.8l-1.1,0.5l-7.8-4.4l-3,3  l4.5,7.6l-0.6,1.1c-0.3,0.6-0.6,1.3-0.8,2.1L18.4,31l-8.3,2.3v4.3l8.3,2.1l0.4,1.2c0.3,0.7,0.5,1.4,0.8,2l0.5,1.1l-4.3,7.6l3,3  l7.5-4.4l1.1,0.6c0.6,0.3,1.3,0.6,2.1,0.9l1.2,0.4L33.1,60.6z M55,57.8l2.6,0.3l-0.3-2.6L55,57.8z M70.8,81.2  c-5.7,0-10.2-4.6-10.2-10.2c0-5.7,4.6-10.3,10.2-10.3C76.4,60.7,81,65.3,81,71C81,76.6,76.4,81.2,70.8,81.2z M70.8,65.4  c-3.1,0-5.5,2.5-5.5,5.5c0,3,2.5,5.5,5.5,5.5c3,0,5.5-2.5,5.5-5.5C76.3,67.9,73.8,65.4,70.8,65.4z M35.2,49.5  c-3.3,0-6.6-1.2-9.2-3.4l-0.1-0.1l-1.4-1.5c-1.7-2-2.8-4.4-3.2-7l0-0.4l0-4c1.1-7,7-12,14-12c7.8,0,14.2,6.4,14.2,14.2  c0,3.3-1.2,6.6-3.4,9.2l-0.1,0.1L44.4,46C41.8,48.3,38.5,49.5,35.2,49.5z M29.2,42.5c1.2,1,3.3,2.3,6.1,2.3c2.8,0,4.8-1.2,6.1-2.3  l1.2-1.2c1.5-1.8,2.3-3.8,2.3-6.1c0-5.2-4.3-9.5-9.5-9.5c-4.6,0-8.5,3.3-9.3,7.9v3.3c0.3,1.6,1,3.1,2.1,4.4L29.2,42.5z"/></svg>