<svg xmlns="http://www.w3.org/2000/svg" viewBox="0 0 24 24" x="0px" y="0px" class="content__mission-image"><style type="text/css">
.svg__icon {
  fill: #ccc;
  }
</style><title>battery-charging</title><path class="svg__icon" d="M20.5,9H19V6.5a.5.5,0,0,0-.5-.5h-6a.5.5,0,0,0,0,1H18V9.5a.5.5,0,0,0,.5.5H20v3H18.5a.5.5,0,0,0-.5.5V16H14.5a.5.5,0,0,0,0,1h4a.5.5,0,0,0,.5-.5V14h1.5a.5.5,0,0,0,.5-.5v-4A.5.5,0,0,0,20.5,9Z"/><path class="svg__icon" d="M8.5,16H3V7H6.5a.5.5,0,0,0,0-1h-4a.5.5,0,0,0-.5.5v10a.5.5,0,0,0,.5.5h6a.5.5,0,0,0,0-1Z"/><path class="svg__icon" d="M14.8623,8.1553a.5052.5052,0,0,0-.4834-.1407L11,8.8594V1.3574a.4992.4992,0,0,0-.4268-.4941.5054.5054,0,0,0-.5517.3486l-4,13.1426a.5.5,0,0,0,.6.6309L10,14.1406v7.502a.4992.4992,0,0,0,.4268.4941.4632.4632,0,0,0,.0732.0059.5006.5006,0,0,0,.4785-.3545l4-13.1426A.5.5,0,0,0,14.8623,8.1553ZM11,18.2822V13.5a.4994.4994,0,0,0-.5-.5.5168.5168,0,0,0-.1211.0146l-3.1435.7862L10,4.7178V9.5a.5011.5011,0,0,0,.1924.3945.5084.5084,0,0,0,.4287.0909l3.1435-.7862Z"/></svg>