<?xml version="1.0" standalone="no"?>
<!DOCTYPE svg PUBLIC "-//W3C//DTD SVG 20010904//EN"
 "http://www.w3.org/TR/2001/REC-SVG-20010904/DTD/svg10.dtd">
<svg version="1.0" xmlns="http://www.w3.org/2000/svg"
 width="792.000000pt" height="792.000000pt" viewBox="0 0 792.000000 792.000000"
 preserveAspectRatio="xMidYMid meet">
<metadata>
Created by potrace 1.11, written by Peter Selinger 2001-2013
</metadata>
<g transform="translate(0.000000,792.000000) scale(0.100000,-0.100000)"
fill="#000000" stroke="none">
<path d="M3608 7175 c-2 -2 -34 -6 -73 -9 -95 -9 -135 -14 -165 -22 -14 -4
-30 -8 -37 -10 -30 -6 -89 -28 -100 -37 -7 -5 -13 -7 -13 -3 0 3 -24 -9 -52
-28 -52 -34 -56 -35 -178 -40 -69 -3 -132 -7 -140 -9 -36 -9 -116 -21 -122
-19 -5 1 -8 -3 -8 -8 0 -6 -7 -10 -15 -10 -57 0 -265 -160 -265 -204 0 -9 -4
-16 -9 -16 -5 0 -18 -31 -31 -69 -23 -73 -27 -141 -16 -276 4 -44 9 -111 12
-150 2 -38 6 -84 8 -101 3 -28 -7 -43 -85 -125 -49 -52 -92 -102 -95 -111 -3
-10 -9 -18 -14 -18 -8 0 -26 -49 -31 -85 -1 -5 -5 -20 -10 -33 -5 -13 -11 -37
-14 -55 -5 -33 -11 -63 -21 -107 -3 -14 -7 -36 -10 -50 -2 -14 -7 -36 -9 -50
-3 -14 -8 -38 -11 -55 -3 -16 -10 -48 -15 -70 -6 -22 -10 -47 -11 -55 0 -13
-18 -116 -33 -195 -3 -16 -8 -43 -10 -58 -2 -15 -9 -54 -15 -85 -7 -31 -13
-68 -15 -82 -3 -26 -6 -43 -30 -175 -35 -193 10 -317 172 -471 29 -28 53 -50
53 -48 0 2 10 -7 23 -19 32 -31 102 -89 128 -107 12 -8 38 -31 59 -50 20 -19
51 -46 69 -60 31 -23 33 -27 27 -75 -3 -27 -7 -63 -11 -80 -9 -54 -17 -100
-22 -130 -2 -16 -8 -52 -13 -80 -5 -27 -12 -66 -14 -85 -3 -19 -8 -46 -10 -60
-3 -14 -7 -41 -10 -60 -3 -19 -7 -44 -10 -55 -4 -21 -17 -106 -21 -140 -2 -11
-14 -87 -29 -170 -14 -82 -28 -167 -32 -189 -3 -21 -7 -48 -10 -59 -7 -39 -17
-102 -17 -115 0 -14 -17 -13 -73 3 -18 6 -21 0 -34 -77 -8 -46 -15 -85 -15
-88 -4 -17 -19 -99 -22 -120 -6 -40 -15 -88 -28 -150 -2 -13 -7 -42 -10 -65
-3 -22 -8 -47 -11 -56 -2 -9 -7 -34 -10 -55 -2 -22 -6 -46 -9 -54 -2 -8 -6
-28 -9 -45 -13 -77 -18 -105 -31 -180 -17 -92 -16 -86 -55 -305 -16 -91 -32
-181 -35 -200 -3 -19 -10 -52 -15 -73 -8 -37 6 -67 30 -67 8 0 189 -74 245
-100 48 -22 242 -90 258 -90 4 0 20 -6 35 -14 15 -8 54 -22 87 -31 33 -9 85
-23 115 -31 67 -19 236 -61 270 -68 14 -2 68 -13 120 -24 153 -32 215 -41 415
-59 200 -19 755 -5 950 23 22 3 47 6 55 6 8 0 40 4 70 9 30 4 78 11 105 14 93
12 118 16 220 38 6 2 16 6 23 10 6 5 12 6 12 4 0 -2 26 2 58 10 31 7 65 16 74
18 85 20 411 120 433 133 6 4 15 7 20 8 10 2 149 56 200 78 37 16 98 40 105
42 3 0 23 9 45 19 22 9 50 21 63 26 19 7 22 14 18 37 -9 39 -15 72 -21 107 -6
31 -12 63 -21 105 -3 14 -7 36 -9 50 -2 14 -7 36 -10 50 -3 14 -12 61 -20 105
-19 107 -25 135 -30 165 -3 14 -7 36 -10 50 -3 14 -9 48 -15 75 -6 28 -12 64
-14 80 -2 17 -7 37 -10 45 -3 8 -8 29 -10 45 -3 26 -16 98 -31 175 -3 14 -9
50 -15 80 -6 30 -12 66 -15 80 -14 75 -48 247 -50 260 -2 8 -4 22 -4 32 -1 14
-5 15 -46 2 -25 -7 -45 -10 -46 -6 -2 18 -10 73 -20 132 -13 83 -20 129 -23
160 -4 28 -16 105 -22 135 -3 11 -7 38 -9 60 -5 47 -32 222 -49 325 -8 48 -16
107 -22 155 -3 22 -7 47 -9 55 -7 25 -19 114 -18 137 0 12 27 59 60 105 115
163 200 334 239 483 44 169 51 414 18 660 -3 22 -7 63 -10 90 -10 105 -24 234
-29 270 -2 17 -7 59 -10 95 -6 59 -17 111 -32 150 -4 8 -7 18 -7 22 -1 4 -7
13 -13 19 -7 7 -13 17 -13 23 0 5 -11 24 -24 41 l-25 32 36 124 c58 204 49
314 -38 444 -29 43 -99 119 -99 107 0 -4 -4 -2 -8 4 -10 15 -117 77 -182 106
-64 29 -155 62 -220 78 -29 8 -63 29 -98 61 -87 80 -267 155 -448 188 -33 6
-68 13 -80 15 -12 2 -57 7 -100 11 -67 6 -112 21 -134 45 -10 10 -110 60 -110
55 0 -3 -8 -1 -18 4 -20 10 -156 40 -217 47 -46 5 -253 12 -257 9z"/>
</g>
</svg>
